Coordinates
version=1
nRows=30
nColumns=19
inDegrees=yes

Units are S.I. units (second, meters, Newtons, ...)
If the header above contains a line with 'inDegrees', this indicates whether rotational values are in degrees (yes) or radians (no).

endheader
time	pelvis_tilt	pelvis_list	pelvis_rotation	pelvis_tx	pelvis_ty	pelvis_tz	hip_flexion_r	hip_adduction_r	hip_rotation_r	knee_angle_r	knee_angle_r_beta	ankle_angle_r	hip_flexion_l	hip_adduction_l	hip_rotation_l	knee_angle_l	knee_angle_l_beta	ankle_angle_l
     13.46000000	     -1.93729205	      9.88393038	      6.56497793	      2.30104094	      1.06595373	      0.98507953	    -13.05929215	    -15.29801503	    -12.40914394	     63.39712684	      1.10648860	    -15.35861567	     13.15051005	     12.94056417	     -1.26766910	      8.43554577	      0.14722805	      6.80842456
     13.46666667	     -2.17051952	      9.95035254	      6.89514076	      2.29938337	      1.06022098	      0.98463574	    -11.61827425	    -15.44174752	    -11.31261849	     66.83559519	      1.16650119	    -15.79098097	     14.19310321	     13.02569481	     -1.27533899	     11.18613550	      0.19523490	      6.88087676
     13.47333333	     -1.95762476	     10.15796203	      7.13264720	      2.29772812	      1.05457975	      0.98439937	    -10.67778812	    -15.70952111	    -10.35473071	     70.14028896	      1.22417898	    -16.21223662	     14.77593872	     13.19380262	     -1.38711338	     14.12180339	      0.24647197	      7.06502285
     13.48000000	     -1.23384897	     10.55712901	      7.31702398	      2.29606661	      1.04916590	      0.98432889	    -10.35330255	    -16.15036710	     -9.61217393	     73.28008389	      1.27897874	    -16.50362771	     14.78057344	     13.50143651	     -1.51412633	     17.13543919	      0.29906983	      7.41630534
     13.48666667	     -1.55523337	     10.56878785	      7.50030734	      2.29393076	      1.04244818	      0.98430102	     -8.55523041	    -16.31004609	     -8.48714772	     76.63757436	      1.33757800	    -16.66043333	     16.17971452	     13.46957500	     -1.87664705	     20.61037256	      0.35971886	      8.00263714
     13.49333333	     -1.35592725	     10.76938368	      7.63446352	      2.29180381	      1.03617350	      0.98445126	     -7.38391643	    -16.62916638	     -7.56288279	     79.79185906	      1.39263066	    -16.67171564	     16.92227853	     13.57507957	     -2.19062797	     23.99561680	      0.41880252	      8.81010210
     13.50000000	     -0.42674336	     11.28835898	      7.74473897	      2.28979619	      1.03065153	      0.98468392	     -7.15206389	    -17.27321635	     -6.98371923	     82.67217634	      1.44290168	    -16.57957895	     16.67170673	     13.96625087	     -2.32213912	     27.11408548	      0.47323007	      9.94701679
     13.50666667	     -0.81822892	     11.21053668	      7.76934911	      2.28719670	      1.02388061	      0.98512130	     -4.99090769	    -17.33161832	     -5.70203871	     85.78658154	      1.49725830	    -16.15547588	     18.08492425	     13.79849629	     -2.72226336	     30.51115925	      0.53252019	     11.18235091
     13.51333333	     -0.68498626	     11.32008741	      7.90710242	      2.28469973	      1.01793256	      0.98547307	     -3.53882924	    -17.57916025	     -4.83577820	     88.59739199	      1.54631620	    -15.76807022	     18.67696840	     13.85767243	     -2.74901045	     33.55447297	      0.58563603	     12.65740270
     13.52000000	     -0.42543551	     11.44087436	      8.00497342	      2.28219293	      1.01249277	      0.98589757	     -2.18139462	    -17.81992264	     -3.98459221	     91.22001418	      1.59208959	    -15.18887486	     18.95723484	     13.93042488	     -2.68013000	     36.29666124	      0.63349625	     14.25448929
     13.52666667	     -0.15022224	     11.50127395	      8.12017323	      2.27966181	      1.00755550	      0.98630931	     -0.79122659	    -17.98530291	     -3.18168815	     93.64394553	      1.63439517	    -14.49832502	     19.03559140	     13.97425320	     -2.45300701	     38.72378362	      0.67585752	     15.91985041
     13.53333333	      0.09841199	     11.48611385	      8.26780859	      2.27717571	      1.00318033	      0.98671838	      0.66912410	    -18.07058162	     -2.45731495	     95.85043062	      1.67290560	    -13.72284158	     18.93495192	     13.95965890	     -2.11467637	     40.80258388	      0.71213943	     17.62586462
     13.54000000	      0.41649506	     11.41284688	      8.41838133	      2.27479784	      0.99955163	      0.98698517	      2.06880321	    -18.07064254	     -1.79002140	     97.79233202	      1.70679818	    -12.84168529	     18.52014552	     13.91934212	     -1.59974064	     42.47690323	      0.74136182	     19.17977265
     13.54666667	      0.96326495	     11.40335136	      8.58432934	      2.27266946	      0.99690816	      0.98722618	      3.15359571	    -18.14399520	     -1.31541162	     99.40979454	      1.73502822	    -11.91287104	     17.56296481	     13.91790229	     -0.99290587	     43.68086499	      0.76237491	     20.71187749
     13.55333333	      1.42575445	     11.29095794	      8.74278956	      2.27060775	      0.99495319	      0.98746224	      4.38932459	    -18.11007148	     -0.88145586	    100.77790478	      1.75890625	    -11.06844854	     16.49584971	     13.80610071	     -0.32551013	     44.51594182	      0.77694975	     21.99826501
     13.56000000	      1.58539335	     10.88015671	      8.87421520	      2.26890897	      0.99343041	      0.98769922	      5.99075779	    -17.72226997	     -0.44518203	    101.87876546	      1.77811990	     -9.88055305	     15.59357819	     13.33252282	      0.19815952	     45.04323229	      0.78615271	     23.33512718
     13.56666667	      1.83128498	     10.58981170	      8.99844768	      2.26727045	      0.99285364	      0.98783498	      7.47947909	    -17.52317572	     -0.14528530	    102.67855198	      1.79207880	     -9.16488422	     14.37909706	     13.01207821	      0.88066941	     45.17433961	      0.78844096	     24.15393763
     13.57333333	      1.86261212	      9.94344781	      9.00294353	      2.26603653	      0.99281142	      0.98823718	      9.24828074	    -16.85547308	      0.15980107	    103.17591119	      1.80075936	     -8.26110314	     13.31460815	     12.19426634	      1.25215189	     45.08560538	      0.78689226	     24.97301039
     13.58000000	      1.90611140	      9.59260211	      9.11443480	      2.26516443	      0.99363638	      0.98835137	     10.81386478	    -16.64021501	      0.19984246	    103.34100831	      1.80364085	     -7.51231901	     11.94384272	     11.74750173	      1.82224373	     44.52971375	      0.77719012	     25.45314640
     13.58666667	      2.12027956	      8.99084080	      9.00237875	      2.26461515	      0.99528553	      0.98882777	     12.19820713	    -16.01374916	      0.24721142	    103.17577399	      1.80075696	     -6.67332130	     10.34082147	     10.87946100	      2.08319663	     43.79831088	      0.76442473	     25.88826892
     13.59333333	      1.98538668	      8.56711642	      9.06860975	      2.26434860	      0.99741696	      0.98900394	     13.80114587	    -15.75647277	      0.04790476	    102.72490115	      1.79288775	     -6.06476410	      8.92192951	     10.29576338	      2.48752018	     42.74092540	      0.74596987	     25.87443939
     13.60000000	      2.41448636	      7.90673811	      8.78149756	      2.26443896	      1.00078633	      0.98975113	     14.75739586	    -14.98284668	     -0.09632304	    101.88940995	      1.77830568	     -5.42720567	      6.83495611	      9.29145395	      2.64391507	     41.45841814	      0.72358590	     25.75956859
     13.60666667	      2.99701363	      7.46636839	      8.63326412	      2.26497641	      1.00506108	      0.99024686	     15.26853039	    -14.58150100	     -0.58297241	    100.69029878	      1.75737724	     -4.87268061	      4.37394411	      8.51238935	      2.90161550	     39.83006642	      0.69516580	     25.22072834
     13.61333333	      3.21116566	      6.91764951	      8.48947288	      2.26576843	      1.00947798	      0.99079989	     16.11040636	    -14.09280657	     -1.13201329	     99.26509272	      1.73250270	     -4.38904003	      2.29943259	      7.66766869	      3.08816153	     38.12250371	      0.66536321	     24.38043572
     13.62000000	      2.87530408	      6.35351503	      8.39309014	      2.26662189	      1.01379195	      0.99135050	     17.49930504	    -13.67407721	     -1.73133555	     97.68631859	      1.70494789	     -3.98700903	      0.82768211	      6.91163216	      3.30121659	     36.37633175	      0.63488676	     23.13132447
     13.62666667	      3.70691369	      5.79151560	      8.19975802	      2.26811311	      1.01990631	      0.99200129	     17.27434369	    -13.12501565	     -2.65291115	     95.57856105	      1.66816058	     -3.49007413	     -2.10240106	      5.92338854	      3.38391906	     34.21501681	      0.59716470	     21.58573486
     13.63333333	      3.78383928	      5.10881913	      7.97784691	      2.26967218	      1.02554639	      0.99276467	     17.88102468	    -12.48161349	     -3.47486497	     93.36403539	      1.62950982	     -3.14963255	     -4.12592842	      4.94077509	      3.32548622	     32.13619636	      0.56088244	     19.62532853
     13.64000000	      2.98974722	      4.55585376	      7.89716926	      2.27127099	      1.03053034	      0.99345680	     19.35560255	    -12.11572872	     -4.31880840	     91.07639514	      1.58958297	     -2.76461194	     -5.12811518	      4.24261317	      3.38525214	     30.18883765	      0.52689461	     17.20488883
     13.64666667	      3.97788221	      3.84011432	      7.60635420	      2.27347870	      1.03775360	      0.99429031	     18.53974071	    -11.33527950	     -5.46374383	     88.19325092	      1.53926261	     -2.37073521	     -8.29945331	      3.09303159	      3.18983315	     27.64593856	      0.48251265	     14.50838732
     13.65333333	      3.84511229	      3.18610447	      7.35514336	      2.27563524	      1.04390616	      0.99517542	     18.95476347	    -10.71218288	     -6.45231584	     85.30347931	      1.48882658	     -2.03313044	    -10.09643446	      2.20196887	      2.96349722	     25.37212743	      0.44282716	     11.45354000
